<?xml version="1.0" encoding="utf-8"?>
<!-- Generator: Adobe Illustrator 16.0.0, SVG Export Plug-In . SVG Version: 6.00 Build 0)  -->
<!DOCTYPE svg PUBLIC "-//W3C//DTD SVG 1.1//EN" "http://www.w3.org/Graphics/SVG/1.1/DTD/svg11.dtd">
<svg version="1.1" id="Layer_1" xmlns="http://www.w3.org/2000/svg" xmlns:xlink="http://www.w3.org/1999/xlink" x="0px" y="0px"
	 width="150px" height="150px" viewBox="0 0 150 150" enable-background="new 0 0 150 150" xml:space="preserve">
<g>
	<g>
		<g>
			<path fill="#2E343B" d="M92.827,54.811c0,0-9.521-7.343-8.512-18.599c1.178-13.121,16.039-16.65,24.275-10.403
				c9.564,7.251,11.351,34.678-5.043,58.32c-16.394,23.646-36.95,15.846-42.246,11.661c-5.186-4.096-17.542-20.546,16.529-48.941
				c0,0,3.963-1.772-0.896,7.024c-9.562,17.335-12.477,27.418-8.375,31.204c4.09,3.785,17.018,7.885,27.421-13.243
				c10.406-21.121,9.145-33.729,7.567-36.567c-1.577-2.836-6.623-5.99-10.403-0.946c-3.784,5.045-1.469,13.029,1.259,16.708
				C96.14,53.361,95.485,56.979,92.827,54.811z"/>
		</g>
		<g>
			<path fill="#2E343B" d="M116.782,66.79c10.826,0,27.744-10.403,30.898-25.525c3.148-15.125-4.419-20.814-7.25-20.814
				c-2.836,0-6.723,5.883-6.302,12.294c0.278,4.28,3.466,13.24,3.466,13.24c-1.58,12.61-17.336,16.078-19.551,16.091L116.782,66.79z
				"/>
		</g>
		<g>
			<path fill="#2E343B" d="M64.383,23.967c-3.148,3.624-13.777,7.974-9.191,14.015c4.146,5.451,16.438,0.244,16.438-18.125
				c0-18.365-21.938-20.541-30.533-15.948c-10.2,5.454-16.347,17.157-15.867,29.724c0.484,12.566,8.938,17.884,8.938,17.884
				S9.8,57.79,2.951,82.451c-7.968,28.76,13.861,58.898,49.092,64.73c50.702,8.388,69.698-26.892,76.229-43.864
				c8.313-21.583,0.361-29.175-6.857-27.948c-11.676,1.981-2.791,15.208-3.979,22.671c-3.819,24.014-29.04,48.786-64.953,40.771
				c-27.377-6.118-33.484-39.916-29.321-53.987c1.925-6.48,10.696-26.149,21.69-26.149c1.557,0,4.12-2.85,0.916-4.684
				c-2.683-1.535-4.598-4.152-4.903-4.706c-3.636-6.389-6.662-17.313-0.897-27.012C45.29,13.332,53.67,5.035,62.926,11.638
				C68.782,15.813,64.383,23.967,64.383,23.967z"/>
		</g>
	</g>
</g>
</svg>
